<svg xmlns="http://www.w3.org/2000/svg" viewBox="0 0 359.97 539.99"><defs><style>.cls-1{fill:#fff;}</style></defs><g id="Capa_2" data-name="Capa 2"><g id="Capa_1-2" data-name="Capa 1"><path class="cls-1" d="M79.74,360.33C53,355.83,31.52,343.25,16,321.08A87.41,87.41,0,0,1,.15,264.88c2.26-40.46,32.45-78.2,80.59-84.71a30.13,30.13,0,0,0-3.44-1.06C32.3,172.52,0,134.71,0,88.67.07,45.11,33.59,7.14,77.54,1A93.27,93.27,0,0,1,90.48.06Q180,0,269.47,0a90.14,90.14,0,0,1,90.46,90.18c.26,43.76-33.05,82.47-76.38,88.76a10.5,10.5,0,0,0-3.47,1c25.5,4,46.55,15.54,61.9,36.3s21.14,44.31,16.34,69.94c-7.78,41.54-43.08,72-84.36,73.73-41.62,1.73-84.56-26.24-94-77v6.61c0,53.33.08,106.66,0,160-.09,45.78-33,83.29-78.26,89.55C53.42,545.84,7.88,511.4,1,463A89.86,89.86,0,0,1,77.07,361C78,360.81,78.85,360.54,79.74,360.33ZM180.17,257.07c9.06-42.17,34.61-67.73,77.16-76.63H180.17Z"/></g></g></svg>