<svg xmlns="http://www.w3.org/2000/svg" viewBox="0 0 711.54 796.91"><defs><style>.cls-1{fill:#fff;}</style></defs><g id="Capa_2" data-name="Capa 2"><g id="Capa_1-2" data-name="Capa 1"><path class="cls-1" d="M707,5.63A17.33,17.33,0,0,0,694.21,0H17.32A17.32,17.32,0,0,0,.07,18.87l61,683A17.36,17.36,0,0,0,73.56,717l277.36,79.22a17.39,17.39,0,0,0,9.49,0L638,717a17.36,17.36,0,0,0,12.51-15.13l61-683A17.4,17.4,0,0,0,707,5.63ZM130.55,467.82l121.27,33.64V155.92h69.3V606.34L130.55,553.49ZM581.92,346.48,563.66,558.7,390.42,606.34v-79.7L507.35,494.5l4.34-65-121.27,20.9V155.92H598.31l-6,69.29H459.71v138.6Z"/></g></g></svg>