<svg xmlns="http://www.w3.org/2000/svg" viewBox="0 0 429.43 467.56"><defs><style>.cls-1{fill:#fff;}</style></defs><g id="Capa_2" data-name="Capa 2"><g id="Capa_1-2" data-name="Capa 1"><path class="cls-1" d="M262.59,402.93v49.14c6.72,0,13.29-.14,19.85.05,4.42.13,7.51,3.24,7.49,7.32,0,4.27-2.25,7-6.48,7.84a22.51,22.51,0,0,1-4.35.26c-8.25,0-16.5,0-24.75,0H151.47a33.76,33.76,0,0,1-5.33-.21,7.81,7.81,0,0,1-6.88-8.06,7.52,7.52,0,0,1,7.72-7.17c6.43-.18,12.88-.05,19.67-.05V402.93h-5.46c-41.9,0-83.81-.48-125.69.2C14,403.48-.1,387.55,0,367.8c.44-88.33.19-176.66.2-265C.2,81,13.09,68.1,34.84,68.09q43.19,0,86.38,0H127c-2.46-3.09-4.55-5.31-6.19-7.83-3.81-5.85-3.31-11.81,1.51-16.81,5.39-5.58,10.89-11.08,16.57-16.37,5.87-5.48,14-5.91,19,.26,6,7.34,11.51,8.44,19.31,3.25,3.52-2.35,8.06-3.15,12.43-4.76,0-3.87-.08-7.74,0-11.61.21-8.24,5-13.6,13.07-14s16.18-.35,24.25,0S239.81,6,240,14.18c.07,3.87,0,7.74,0,11.19,7.36,3.15,14.28,6.23,21.32,9,1.07.42,3-.27,4-1.11,2.48-2.05,4.56-4.59,7-6.74,5.53-4.94,12.56-5,17.95,0,5,4.63,9.86,9.36,14.62,14.2,8.85,9,8.81,15.33,0,24.58l-2.59,2.75h5.86q43.2,0,86.39,0c21.76,0,34.66,12.92,34.67,34.71,0,88.33-.24,176.65.18,265,.1,19.68-13.85,35.69-35.47,35.35-41.73-.67-83.47-.2-125.21-.2ZM54.74,122.44V348.63h319.8V122.49H334.38c-.94,6.82,2.11,15.45-5.43,19.06-6.11,2.92-13.53,3.08-21,4.58-1,2.85-1.79,7.25-4.06,10.63-5.46,8.11-4.29,13.87,3.49,20,6.12,4.8,5.58,12.72.07,18.47s-11.36,11.53-17.26,17.05c-5.3,4.95-11.92,5-17.58.32-2.61-2.15-4.77-4.85-7.38-7-1-.81-2.92-1.43-4-1-7,2.79-13.9,5.89-21.31,9.1,0,3.39.19,7.27,0,11.11-.56,9.37-5.25,13.77-14.57,13.85q-10.44.09-20.87,0c-9.73-.07-14.81-5.26-14.91-15.12,0-3.52,0-7.05,0-10.24-5.22-2-9.95-3.67-14.53-5.66-8.7-3.79-8.67-3.87-15.31,2.72-7.45,7.39-13.88,7.76-21.59.74C132.53,206,127.21,200.52,122,195c-4.88-5.12-4.92-12.6-.21-18.09,2.2-2.57,4.86-4.75,7.13-7.26.74-.82,1.54-2.43,1.21-3.22-3-7.25-6.25-14.39-8.86-20.3-7.4-1.53-14.72-1.61-20.54-4.61-7.17-3.7-4.35-12.35-5.45-19.1Zm70-38.82h-5.81q-42,0-84,0c-13.22,0-19.22,6-19.22,19.31q0,132.51,0,265c0,13.62,5.82,19.46,19.48,19.46H394.38c13.35,0,19.32-5.93,19.32-19.14q0-132.75,0-265.5c0-13-6.08-19.13-18.91-19.14q-42.23,0-84.45,0c-1.69,0-3.38.16-5.12.25,2.54,10.33,2.55,10.56,12,10.29,9.12-.27,15.3,3.13,17.28,12.54h44.45c9.32,0,11.5,2.15,11.5,11.32q0,117.45,0,234.91c0,9.34-2.13,11.53-11.37,11.53H50.48c-9.31,0-11.47-2.19-11.47-11.42q0-99.26,0-198.51c0-12.94,0-25.89,0-38.83,0-6,2.91-8.88,8.95-9,5.5-.09,11,0,16.5,0H95.7c1-9,6.88-11.88,14.54-12.42,2.73-.2,5.51.08,8.23-.2,1.19-.12,2.89-.81,3.32-1.73A76.66,76.66,0,0,0,124.73,83.62Zm10-30.29c2.09,2,3.85,3.62,5.6,5.29,7.74,7.38,8.26,10.84,4,20.57-3.05,6.93-5.79,14-8.39,21.1-1.76,4.8-4.5,8.2-9.82,8.81-4.77.55-9.56,1-14.63,1.48v18.24c1.53.1,2.79.24,4.05.24,15.82.05,18,1.79,23.06,17.09a76.55,76.55,0,0,0,5.74,13.79c3.67,6.48,3.89,11-.83,16.9-2.57,3.23-5.59,6.09-7.89,8.57,4.44,4.62,8.66,9,13,13.56,1.1-1.06,2.28-2.14,3.41-3.27,10-10.11,13.49-10.55,26.39-4.06a80.86,80.86,0,0,0,14.66,6.15c8,2.2,11.48,5.67,11.93,14.15.19,3.63,0,7.29,0,10.91h19.41c0-1.53,0-2.79,0-4-.25-15.59,1.32-17.65,16-22.65a92.14,92.14,0,0,0,15.12-6.33c6.6-3.65,10.47-3.9,16.37.81,3.25,2.59,6.18,5.58,9.38,8.5l13.12-13.51c-1-1-2.05-2.2-3.17-3.31-10.27-10.15-10.67-13.55-4.23-26.79a148.5,148.5,0,0,0,6.68-17c1.62-4.75,4.53-7.93,9.46-8.62s9.89-.81,15-1.19V109.76H311.7c-12.63,0-15.47-2.21-19.63-14.22a105,105,0,0,0-6.91-16.42c-3.68-6.65-3.7-12.16,1.46-17.68,2.63-2.79,5.65-5.22,7.95-7.33L280.48,39.5a33.25,33.25,0,0,1-2.63,3.35C267.48,53.23,264,53.7,251.07,47.21a82.69,82.69,0,0,0-14.21-6c-8.89-2.51-12-5.86-12.4-15.23-.14-3.32,0-6.64,0-9.93H205c0,4.35.28,8.39-.06,12.38-.62,7.38-4,10.73-11.25,12.54a64.28,64.28,0,0,0-9.93,3.72c-4.14,1.8-8.1,4.05-12.29,5.7-5.83,2.31-11.14,1.15-15.53-3.41-2.43-2.53-4.7-5.2-7-7.73Zm111.9,350H182.81v48.46h63.81Z"/><path class="cls-1" d="M162.89,300.86c1.58-6.51-2.19-15.65,8.6-16.42,5.5-.4,6.8,2.65,7.76,16.42H326.36a34.89,34.89,0,0,1,5.32.15,7.47,7.47,0,0,1,6.55,8.23c-.39,4.33-3,6.64-7.22,7.09a39.61,39.61,0,0,1-4.36.05H179.37c-.91,5.87.49,13.45-8.67,13.48-5,0-6.58-2.9-7.78-13.48H101c-6.53,0-10-2.82-9.88-7.92.11-4.87,3.53-7.59,9.78-7.6q28.37,0,56.74,0Z"/><path class="cls-1" d="M298.8,273.57c-1.21,10.75-3.1,13.68-8.39,13.53s-7.28-3.49-7.91-13.53H102.7a32.64,32.64,0,0,1-4.85-.13,7.46,7.46,0,0,1-6.66-8.14c.34-4.34,2.88-6.71,7.13-7.18a50,50,0,0,1,5.34-.08H282.14c2-6.26-2.29-16.35,8.58-16.26,10.61.09,6.33,9.88,8.21,16.26h25.43c1.95,0,3.89-.06,5.83,0,5,.23,8.12,3.26,8.08,7.77s-3.15,7.61-8.2,7.69c-8.57.13-17.15,0-25.72,0Z"/><path class="cls-1" d="M265.63,119.2c.1,29.49-21.16,51.05-50.54,51.21s-50.88-21.27-51-50.73c-.09-29.65,21-50.93,50.52-51C244.34,68.55,265.52,89.56,265.63,119.2Zm-15,.53a35.82,35.82,0,1,0-36.19,35.38A36,36,0,0,0,250.58,119.73Z"/></g></g></svg>