<svg xmlns="http://www.w3.org/2000/svg" viewBox="0 0 297.49 332.33"><defs><style>.cls-1{fill:#fff;}</style></defs><g id="Capa_2" data-name="Capa 2"><g id="Capa_1-2" data-name="Capa 1"><path class="cls-1" d="M69.47,36.52c7,1.71,14,3.25,20.88,5.23,2.18.63,3.54.56,5.32-.87,17.64-14.23,36.46-26.53,57.83-34.53C163.24,2.71,173.21.08,183.7,0c4.86,0,5.62.76,5.58,5.7-.1,14.66-4.85,28.14-10.87,41.23-7.75,16.86-18,32.14-29.69,46.52a5.13,5.13,0,0,0-.88,5.93c6.86,17.73,4.57,35-3.24,51.81-6.43,13.87-15.83,25.6-26.44,36.45-2.16,2.2-4,2-6-.11-5.15-5.26-10.49-10.33-15.53-15.69a9.54,9.54,0,0,1-2.27-5.23c-.56-5.58-.55-11.21-1.09-16.79a9.13,9.13,0,0,0-2.18-5.18q-23-23.31-46.28-46.32a7.93,7.93,0,0,0-4.48-2.1c-6-.58-12-.71-17.91-1.27A8.15,8.15,0,0,1,17.82,93C12.4,87.89,7.2,82.5,1.88,77.24c-1.73-1.71-2.59-3.48-.59-5.46C16.66,56.6,33.57,43.93,55.15,39a83.9,83.9,0,0,1,9.61-1.38,39.53,39.53,0,0,1,4.49,0Zm80.26-22.3C114.46,29.76,86.78,54.58,61.1,80.86l47.36,47.38c27.15-24,62.07-70.67,66.21-88.75C162.55,35.22,154.27,27,149.73,14.22ZM56,77.08,87.58,47a48.4,48.4,0,0,0-21.37-3.45C42.3,45.27,24.24,58.28,7.28,74.2c4.83,4.82,9.38,9.38,14,13.91a2.86,2.86,0,0,0,1.58.86c4.55.36,9.1.62,14.08.94-2.36-7.89,2.72-11.67,7.6-15.1C48.6,72,52.58,73.8,56,77.08Zm86.4,24.74-30.09,31.64c3.11,3.13,5.08,6.88,2.61,10.79-3.39,5.39-7.41,10.57-15.35,8.49.22,4.46.4,8.55.67,12.64a4,4,0,0,0,.78,2.4c4.68,4.76,9.44,9.44,14.3,14.25,13.56-14.48,25-29.74,29.21-49.23A52.57,52.57,0,0,0,142.38,101.82ZM110.5,141a40,40,0,0,0-2.62-3.37q-28-28-56-56.06c-2.85-2.85-3.53-2.74-6.95.7s-3.48,4-.55,7Q72.22,117.17,100.17,145c1,1,3.46,2.12,4.29,1.62C106.68,145.26,108.38,143.07,110.5,141ZM177.42,34c3.13-9.34,6-18.21,5.76-28a84.64,84.64,0,0,0-27.79,6.16C159.17,23.12,166.17,30.22,177.42,34Z"/><path class="cls-1" d="M241.54,179.63V32.53c0-5.69.18-5.86,6-5.86h43.78c6,0,6.21.21,6.21,6.41v292.7c0,6.15-.36,6.51-6.59,6.51H247.11c-5.06,0-5.56-.5-5.56-5.56Q241.53,253.18,241.54,179.63Zm6.3-146.73V326.11h43.43V32.9Z"/><path class="cls-1" d="M161,257.5V189c0-5.85.46-6.3,6.44-6.3q22.08,0,44.14,0c4.76,0,5.36.62,5.36,5.41q0,69.39,0,138.8c0,4.8-.54,5.33-5.41,5.33q-22.44,0-44.89,0c-5,0-5.63-.64-5.63-5.57Q161,292.11,161,257.5Zm49.74,68.62V189H167.21V326.12Z"/><path class="cls-1" d="M80.59,274.66q0-26,0-52c0-4.61.57-5.2,5.13-5.21q22.82,0,45.62,0c4.56,0,5.18.62,5.18,5.22q0,52.17,0,104.34c0,4.46-.8,5.25-5.21,5.25q-22.82,0-45.62,0c-4.53,0-5.1-.61-5.1-5.26Q80.57,300.85,80.59,274.66Zm49.72,51.44V223.7H86.77V326.1Z"/><path class="cls-1" d="M56,291.91c0,11.86-.08,23.71.05,35.56,0,3.59-1.36,4.88-4.87,4.86q-23.2-.15-46.41,0C1.39,332.34,0,331,0,327.65q.08-36.12,0-72.24c0-3.17,1.44-4.51,4.55-4.5q23.4,0,46.79,0c3.29,0,4.69,1.3,4.66,4.7C55.9,267.71,56,279.81,56,291.91ZM49.73,326.2v-69H6.36v69Z"/><path class="cls-1" d="M52.59,118a24.38,24.38,0,0,1-2.28,3.23Q31,140.55,11.71,159.84c-1.51,1.51-3.18,2.86-5.12,1s-.75-3.57.8-5.12c12.89-12.87,25.73-25.78,38.69-38.58a6.83,6.83,0,0,1,4.17-1.54C50.92,115.53,51.68,117,52.59,118Z"/><path class="cls-1" d="M74.57,140.22a26.46,26.46,0,0,1-2.27,3.18Q53,162.75,33.72,182c-1.56,1.56-3.29,2.7-5.13.81s-.54-3.59,1-5.11c12.87-12.86,25.7-25.76,38.66-38.55a6.77,6.77,0,0,1,4.2-1.41C73.06,137.74,73.75,139.23,74.57,140.22Z"/><path class="cls-1" d="M30,162.83c-2.92-.16-4.1-2.67-2.72-4.76a17,17,0,0,1,2.29-2.45Q43.15,142,56.75,128.37c1.58-1.58,3.33-3.19,5.41-1.22s.55,3.8-1,5.38Q47,146.68,32.81,160.79A18.34,18.34,0,0,1,30,162.83Z"/><path class="cls-1" d="M55.6,181.48c-1-.77-2.42-1.34-2.49-2.06a5.6,5.6,0,0,1,1-4c3.8-4.1,7.86-8,11.82-11.93Q72.6,156.79,79.33,150c1.55-1.56,3.53-2.74,5-.56.66,1,.15,3.71-.81,4.7-8.2,8.51-16.62,16.82-25,25.15A25.35,25.35,0,0,1,55.6,181.48Z"/><path class="cls-1" d="M41.49,106.86a22.14,22.14,0,0,1-2.23,3.25Q26.9,122.58,14.46,135c-1.49,1.49-3.17,2.91-5.1,1s-.82-3.57.76-5.15c8.38-8.34,16.69-16.76,25.15-25a5.81,5.81,0,0,1,3.88-1.26C39.87,104.53,40.58,105.89,41.49,106.86Z"/><path class="cls-1" d="M149.66,55.63a15.57,15.57,0,1,1-15.31-16A15.64,15.64,0,0,1,149.66,55.63Zm-6-.33A9.55,9.55,0,1,0,134.28,65,9.59,9.59,0,0,0,143.64,55.3Z"/></g></g></svg>