<svg xmlns="http://www.w3.org/2000/svg" viewBox="0 0 666.67 397.6"><defs><style>.cls-1{fill:#fff;fill-rule:evenodd;}</style></defs><g id="Capa_2" data-name="Capa 2"><g id="Capa_1-2" data-name="Capa 1"><path class="cls-1" d="M333.33,0Q200,0,166.67,132.53q50-66.24,116.66-49.7c25.37,6.3,43.5,24.6,63.54,44.84,32.7,33,70.53,71.13,153.13,71.13q133.35,0,166.67-132.53Q616.66,132.51,550,116c-25.37-6.3-43.5-24.6-63.57-44.84C453.77,38.13,416,0,333.33,0ZM166.67,198.8Q33.32,198.8,0,331.33q50-66.3,116.67-49.7c25.36,6.3,43.5,24.6,63.56,44.84,32.67,33,70.5,71.13,153.14,71.13q133.35,0,166.66-132.53-50,66.24-116.66,49.7c-25.37-6.3-43.5-24.6-63.54-44.84C287.1,237,249.27,198.8,166.67,198.8Z"/></g></g></svg>