<svg xmlns="http://www.w3.org/2000/svg" viewBox="0 0 581 581"><defs><style>.cls-1{fill:#fff;}</style></defs><g id="Capa_2" data-name="Capa 2"><g id="Capa_1-2" data-name="Capa 1"><path class="cls-1" d="M567.17,0H13.83A13.83,13.83,0,0,0,0,13.83V567.17A13.83,13.83,0,0,0,13.83,581H567.17A13.83,13.83,0,0,0,581,567.17V13.83A13.83,13.83,0,0,0,567.17,0ZM345.83,310.49H276.67V525.67H221.33V310.49H152.17V262.83H345.83Zm15.51,202.89V455.86s31.42,23.69,69.11,23.69,36.25-24.65,36.25-28c0-35.77-106.81-35.77-106.81-115,0-107.78,155.62-65.26,155.62-65.26l-1.93,51.24s-26.11-17.4-55.59-17.4-40.11,14-40.11,29c0,38.66,107.77,34.8,107.77,112.61C525.67,566.54,361.34,513.38,361.34,513.38Z"/></g></g></svg>