<svg xmlns="http://www.w3.org/2000/svg" viewBox="0 0 408.81 408.56"><defs><style>.cls-1{fill:#fff;}</style></defs><g id="Capa_2" data-name="Capa 2"><g id="Capa_1-2" data-name="Capa 1"><path class="cls-1" d="M0,62c2-6.68,4.44-13.14,10.07-17.7,2.65-2.14,5.59-3.92,8.93-6.22l4.46,11.5c-9.4,4.63-11.61,12.52-11.57,22.22.21,55.88.1,111.77.1,167.66v4.88H35.05V0h68V244.25h20.11v-5.12q0-83.43.09-166.86a15.37,15.37,0,0,1,2-7.41c8.39-14.34,17-28.55,25.56-42.8.66-1.1,1.39-2.17,2.36-3.65,1,1.53,1.79,2.69,2.51,3.9,8.35,13.91,16.79,27.76,24.94,41.78a17.85,17.85,0,0,1,2.4,8.52q.21,83,.1,166.06v5.55H396.63c.06-1.35.17-2.75.17-4.16q0-85.42,0-170.85c0-13.52-7.17-20.68-20.69-20.69q-93.21,0-186.42,0h-5v-12H375.85c20.38,0,32.95,12.49,32.95,32.74q0,109.57,0,219.15c0,15.68-8.16,27.06-22.47,31a41.29,41.29,0,0,1-10.65,1.18q-51.9.12-103.79.05H266.8v44h15c15.76,0,24.6,8.94,24.65,24.81,0,6.38.09,12.77.13,19.15H102.2c0-6.78.06-13.56.14-20.33.18-14.51,9.29-23.55,23.8-23.62,5.27,0,10.55,0,15.9,0v-44h-5q-52.24,0-104.49,0c-8.84,0-16.76-2.35-23.31-8.54C4.11,307.25,1.64,301,0,294.38ZM12.31,256.82c0,12.39-.54,24.62.19,36.77.48,7.88,6.9,13.33,14.75,14.6a34.43,34.43,0,0,0,5.56.41q171.65,0,343.3,0c.67,0,1.33,0,2,0,11.31-.43,18.58-7.79,18.68-19.1.09-10,0-20,0-29.94a25.34,25.34,0,0,0-.3-2.75ZM76.14,74v12.2H47.44V98.31H63.38v12h-16v12H76.2v12H47.41v12h16v12H47.44v12H76.17v12H47.44v12.05h15.9v11.88H47.4v11.93H76.22v12H47.49v14.22h43.4V12H47.38V26.17H76.16V38.34H47.42V50.26h16V62.19H47.37V74Zm78.4,290.34h99.59V320.9H154.54Zm16.24-152.12V80.63c-5.16,3.08-9.93,5.69-14.42,8.71-2.4,1.6-4.15,1.4-6.43-.09-4.62-3-9.42-5.7-14.45-8.71v132c11.23,0,22.11,0,33,0A15.62,15.62,0,0,0,170.78,212.21ZM294.47,396.36v-6.48c0-9.68-3.56-13.28-13.09-13.28q-32.91,0-65.82,0-44.87,0-89.74,0c-6.2,0-10.48,3.07-11.18,8.52-.46,3.62-.09,7.35-.09,11.23Zm-159-171.47v19.45h35.26V224.89Zm1.93-157.21c5,3,9.53,5.82,14.13,8.45a3.39,3.39,0,0,0,2.84.2c4.82-2.72,9.53-5.64,14.53-8.65L153.2,41.45C147.76,50.5,142.73,58.9,137.45,67.68Z"/><path class="cls-1" d="M245.12,60.74H384.58v67.53H245.12Zm12,12v43.54H372.53V72.7Z"/><path class="cls-1" d="M195.79,72.68V60.78h35.57V72.4H219.82V220.51h11.54v11.81H195.81V220.64H207.4v-148Z"/><path class="cls-1" d="M308.63,140.75v43.41H245.16V140.75Zm-51.51,31.4h39.44V152.72H257.12Z"/><path class="cls-1" d="M321,184.16v-43.4h63.55v43.4Zm11.95-12h39.59V152.83H333Z"/><path class="cls-1" d="M251,200.77h27.56V212.3H251Z"/><path class="cls-1" d="M354.53,200.81V212.3H327V200.81Z"/><path class="cls-1" d="M302.57,200.83v11.5H290.93v-11.5Z"/><path class="cls-1" d="M378.61,200.91v11.31H367V200.91Z"/><path class="cls-1" d="M198.65,288.32V276.94h11.52v11.38Z"/><path class="cls-1" d="M186,288.47H174.72V276.91H186Z"/><path class="cls-1" d="M222.67,276.84h11.47v11.57H222.67Z"/><path class="cls-1" d="M147.39,143.89V104.54h11.52v39.35Z"/><path class="cls-1" d="M147.49,180.3h11.3v19.61h-11.3Z"/><path class="cls-1" d="M158.91,156.5v11.4H147.38V156.5Z"/></g></g></svg>