<svg xmlns="http://www.w3.org/2000/svg" viewBox="0 0 459.27 459.2"><defs><style>.cls-1{fill:#fff;}</style></defs><g id="Capa_2" data-name="Capa 2"><g id="Capa_1-2" data-name="Capa 1"><path class="cls-1" d="M0,243.08v-26.9a30.76,30.76,0,0,0,.76-3.87C3,180.28,11.29,149.82,27,121.87,69.32,46.68,133.81,5.73,220,.43A210.39,210.39,0,0,1,336.9,26.87C412.47,69,453.47,133.61,458.84,220c2.58,41.4-6.54,80.9-26.57,117.31Q378.86,434.4,269.62,455.57c-8.76,1.69-17.7,2.44-26.56,3.63H216.15a24.52,24.52,0,0,0-3.46-.74c-32.35-2.17-63-10.73-91.27-26.45C56.87,396.15,17.3,341.88,3.57,269.13,2,260.53,1.17,251.77,0,243.08Zm430.79-13.4c.08-110.91-89.66-200.78-200.91-201.2C119,28.05,28.5,118.43,28.42,229.58c-.08,110.9,89.68,200.78,200.91,201.2C340.18,431.2,430.72,340.82,430.79,229.68Z"/><path class="cls-1" d="M184.39,340c-22-65.32-43.69-129.95-65.61-195.13,6-.49,11.28-1,16.58-1.35,7.68-.59,11.23-3.39,10.77-8.55s-3.78-6.92-11.6-6.6q-25.31,1-50.61,1.91c-1.47.05-3,0-4.63,0C132.62,42.54,265.22,17.77,350.65,95.62a87.71,87.71,0,0,0-9.15,1.69C324.32,102.4,314.78,121,321,139.47c3.17,9.35,8.87,17.82,13.16,26.81,5.06,10.61,10.77,21,14.5,32.1,5.4,16.05,3.56,32.54-1.12,48.55-8.74,29.92-17.83,59.75-26.8,89.61a12.77,12.77,0,0,1-1.1,1.89c-21.76-64.71-43.32-128.84-65.08-193.53,5.41-.47,10.38-.87,15.36-1.33a41.28,41.28,0,0,0,5.76-.76c4.6-1.09,6.64-4,6.05-8.44-.5-3.79-3.19-6.19-7.56-6.06-7.46.23-14.92,1.17-22.38,1.15-21.65-.07-43.3-.45-64.95-.75-3.14,0-6.27-.47-9.4-.38a7,7,0,0,0-7,6.75c-.36,3.95,1.67,6.94,5.86,7.64a120.2,120.2,0,0,0,15.13,1.62c3.27.12,4.94,1.08,6.11,4.35,8.39,23.46,17.05,46.82,25.53,70.24a8.46,8.46,0,0,1,.38,5.07q-18.8,57-37.83,113.84A15.6,15.6,0,0,1,184.39,340Z"/><path class="cls-1" d="M178.6,402.88c18-52.38,35.92-104.37,54.17-157.4l56.42,154.46C259.8,412,214,414.56,178.6,402.88Z"/><path class="cls-1" d="M150.38,391.75c-86.9-40.5-126-148.35-85.86-235.22C93.2,235.08,121.7,313.17,150.38,391.75Z"/><path class="cls-1" d="M388.53,144.06c43.66,77.4,22.27,188.5-67.61,241.5.56-1.87.9-3.17,1.34-4.44q29.44-85,58.85-170A151.72,151.72,0,0,0,388.53,144.06Z"/></g></g></svg>