<svg xmlns="http://www.w3.org/2000/svg" viewBox="0 0 36.24 36.05"><defs><style>.cls-1{fill:#00f301;}.cls-2{fill:none;}</style></defs><g id="Capa_2" data-name="Capa 2"><g id="Capa_1-2" data-name="Capa 1"><path class="cls-1" d="M18,36.05A18.15,18.15,0,0,1,0,17.89a18.12,18.12,0,0,1,36.23.27A18.09,18.09,0,0,1,18,36.05ZM16.86,21.22c1.1,1.17,2,2.15,2.89,3.05s1.71,2.43,3.18,1c1.1-1.1.19-2.18-.52-3.06a23.85,23.85,0,0,0-2.72-2.87c-1.91-1.67-1.77-3.08-.06-5,1.27-1.39,4.56-3,2.51-5s-3.22,1.77-5,2.57A4.7,4.7,0,0,1,16,12.1c0-.67,0-1.29,0-1.91,0-1.21.82-3-1.08-3.29-2.17-.36-2.22,1.62-2.28,3-.16,3.79-.26,7.59-.13,11.37.05,1.69-.19,4.3,2.09,4.45C17.57,25.94,15.12,22.72,16.86,21.22Z"/><path class="cls-2" d="M16.86,21.22c-1.74,1.5.71,4.72-2.32,4.52-2.28-.15-2-2.76-2.09-4.45-.13-3.78,0-7.58.13-11.37.06-1.4.11-3.38,2.28-3,1.9.32,1,2.08,1.08,3.29,0,.62,0,1.24,0,1.91A4.7,4.7,0,0,0,17.14,12c1.78-.8,2.89-4.62,5-2.57s-1.24,3.57-2.51,5c-1.71,1.87-1.85,3.28.06,5a23.85,23.85,0,0,1,2.72,2.87c.71.88,1.62,2,.52,3.06-1.47,1.47-2.3-.09-3.18-1S18,22.39,16.86,21.22Z"/></g></g></svg>